{
  "source": "C:\\Users\\Peter\\Desktop\\stuff\\MIUN\\quantitative_research\\video_compression\\videos\\UVG\\ShakeNDry_1920x1080_120fps_420_8bit_YUV.y4m",
  "output": "C:\\Users\\Peter\\Desktop\\stuff\\MIUN\\quantitative_research\\video_compression\\compressed_videos\\UVG\\vp9\\1\\ShakeNDry_1920x1080_120fps_420_8bit_YUV_vp9.webm",
  "codec": "vp9",
  "ok": "[yuv4mpegpipe @ 000002303aa65280] Stream #0: not enough frames to estimate rate; consider increasing probesize\nInput #0, yuv4mpegpipe, from 'C:\\Users\\Peter\\Desktop\\stuff\\MIUN\\quantitative_research\\video_compression\\videos\\UVG\\ShakeNDry_1920x1080_120fps_420_8bit_YUV.y4m':\n  Duration: 00:00:02.50, start: 0.000000, bitrate: 2985989 kb/s\n  Stream #0:0: Video: rawvideo (I420 / 0x30323449), yuv420p(progressive), 1920x1080, 120 fps, 120 tbr, 120 tbn\n[out#0/webm @ 000002303aa68e00] Codec AVOption b:a (set bitrate (in bits/s)) has not been used for any stream. The most likely reason is either wrong type (e.g. a video option with no video streams) or that it is a private option of some decoder which was not actually used for any stream.\nStream mapping:\n  Stream #0:0 -> #0:0 (rawvideo (native) -> vp9 (libvpx-vp9))\nPress [q] to stop, [?] for help\n[libvpx-vp9 @ 000002303aa6bf80] v1.15.2-100-g40561f514\nOutput #0, webm, to 'C:\\Users\\Peter\\Desktop\\stuff\\MIUN\\quantitative_research\\video_compression\\compressed_videos\\UVG\\vp9\\1\\ShakeNDry_1920x1080_120fps_420_8bit_YUV_vp9.webm':\n  Metadata:\n    encoder         : Lavf62.3.100\n  Stream #0:0: Video: vp9, yuv420p(tv, progressive), 1920x1080, q=2-31, 1000 kb/s, 120 fps, 1k tbn\n    Metadata:\n      encoder         : Lavc62.11.100 libvpx-vp9\n    Side data:\n      cpb: bitrate max/min/avg: 0/0/0 buffer size: 1000000 vbv_delay: N/A\nframe=    0 fps=0.0 q=0.0 size=       0KiB time=N/A bitrate=N/A speed=N/A elapsed=0:00:00.50    \nframe=    4 fps=3.8 q=63.0 size=       0KiB time=00:00:00.03 bitrate= 115.4kbits/s speed=0.032x elapsed=0:00:01.04    \nframe=    9 fps=5.7 q=62.0 size=       0KiB time=00:00:00.07 bitrate=  51.3kbits/s speed=0.0477x elapsed=0:00:01.57    \nframe=   15 fps=7.2 q=62.0 size=       0KiB time=00:00:00.12 bitrate=  30.8kbits/s speed=0.06x elapsed=0:00:02.08    \nframe=   18 fps=6.9 q=62.0 size=       0KiB time=00:00:00.15 bitrate=  25.7kbits/s speed=0.0577x elapsed=0:00:02.59    \nframe=   23 fps=7.4 q=62.0 size=       0KiB time=00:00:00.19 bitrate=  20.1kbits/s speed=0.0613x elapsed=0:00:03.12    \nframe=   27 fps=7.4 q=62.0 size=       0KiB time=00:00:00.22 bitrate=  17.1kbits/s speed=0.0617x elapsed=0:00:03.64    \nframe=   30 fps=7.2 q=61.0 size=       0KiB time=00:00:00.25 bitrate=  15.4kbits/s speed=0.0599x elapsed=0:00:04.17    \nframe=   34 fps=7.2 q=62.0 size=       0KiB time=00:00:00.28 bitrate=  13.6kbits/s speed=0.0603x elapsed=0:00:04.69    \nframe=   39 fps=7.5 q=61.0 size=       0KiB time=00:00:00.32 bitrate=  11.8kbits/s speed=0.0624x elapsed=0:00:05.20    \nframe=   43 fps=7.5 q=61.0 size=       0KiB time=00:00:00.35 bitrate=  10.7kbits/s speed=0.0626x elapsed=0:00:05.72    \nframe=   46 fps=7.4 q=54.0 size=       0KiB time=00:00:00.38 bitrate=  10.0kbits/s speed=0.0614x elapsed=0:00:06.24    \nframe=   51 fps=7.5 q=62.0 size=       0KiB time=00:00:00.42 bitrate=   9.1kbits/s speed=0.0629x elapsed=0:00:06.76    \nframe=   55 fps=7.6 q=62.0 size=       0KiB time=00:00:00.45 bitrate=   8.4kbits/s speed=0.063x elapsed=0:00:07.27    \nframe=   60 fps=7.7 q=62.0 size=       0KiB time=00:00:00.50 bitrate=   7.7kbits/s speed=0.0642x elapsed=0:00:07.78    \nframe=   62 fps=7.5 q=62.0 size=       0KiB time=00:00:00.51 bitrate=   7.4kbits/s speed=0.0622x elapsed=0:00:08.30    \nframe=   67 fps=7.6 q=62.0 size=       0KiB time=00:00:00.55 bitrate=   6.9kbits/s speed=0.0633x elapsed=0:00:08.82    \nframe=   72 fps=7.7 q=62.0 size=       0KiB time=00:00:00.60 bitrate=   6.4kbits/s speed=0.0643x elapsed=0:00:09.33    \nframe=   75 fps=7.6 q=62.0 size=       0KiB time=00:00:00.62 bitrate=   6.2kbits/s speed=0.0634x elapsed=0:00:09.85    \nframe=   80 fps=7.7 q=61.0 size=       0KiB time=00:00:00.66 bitrate=   5.8kbits/s speed=0.0643x elapsed=0:00:10.37    \nframe=   85 fps=7.8 q=61.0 size=       0KiB time=00:00:00.70 bitrate=   5.4kbits/s speed=0.065x elapsed=0:00:10.90    \nframe=   90 fps=7.9 q=61.0 size=       0KiB time=00:00:00.75 bitrate=   5.1kbits/s speed=0.0657x elapsed=0:00:11.41    \nframe=   92 fps=7.7 q=62.0 size=       0KiB time=00:00:00.76 bitrate=   5.0kbits/s speed=0.0643x elapsed=0:00:11.92    \nframe=   98 fps=7.9 q=61.0 size=       0KiB time=00:00:00.81 bitrate=   4.7kbits/s speed=0.0656x elapsed=0:00:12.44    \nframe=  103 fps=7.9 q=60.0 size=       0KiB time=00:00:00.85 bitrate=   4.5kbits/s speed=0.0662x elapsed=0:00:12.96    \nframe=  107 fps=7.9 q=62.0 size=       0KiB time=00:00:00.89 bitrate=   4.3kbits/s speed=0.0662x elapsed=0:00:13.47    \nframe=  112 fps=8.0 q=60.0 size=       0KiB time=00:00:00.93 bitrate=   4.1kbits/s speed=0.0667x elapsed=0:00:13.99    \nframe=  116 fps=8.0 q=60.0 size=       0KiB time=00:00:00.96 bitrate=   4.0kbits/s speed=0.0666x elapsed=0:00:14.50    \nframe=  118 fps=7.9 q=60.0 size=       0KiB time=00:00:00.98 bitrate=   3.9kbits/s speed=0.0655x elapsed=0:00:15.02    \nframe=  123 fps=7.9 q=60.0 size=       0KiB time=00:00:01.02 bitrate=   3.8kbits/s speed=0.066x elapsed=0:00:15.53    \nframe=  128 fps=8.0 q=60.0 size=       0KiB time=00:00:01.06 bitrate=   3.6kbits/s speed=0.0664x elapsed=0:00:16.06    \nframe=  130 fps=7.8 q=59.0 size=     128KiB time=00:00:01.08 bitrate= 966.2kbits/s speed=0.0653x elapsed=0:00:16.58    \nframe=  136 fps=8.0 q=59.0 size=     128KiB time=00:00:01.13 bitrate= 923.6kbits/s speed=0.0663x elapsed=0:00:17.10    \nframe=  142 fps=8.1 q=58.0 size=     128KiB time=00:00:01.18 bitrate= 884.6kbits/s speed=0.0672x elapsed=0:00:17.61    \nframe=  145 fps=8.0 q=57.0 size=     128KiB time=00:00:01.20 bitrate= 866.3kbits/s speed=0.0666x elapsed=0:00:18.13    \nframe=  151 fps=8.1 q=57.0 size=     128KiB time=00:00:01.25 bitrate= 831.9kbits/s speed=0.0675x elapsed=0:00:18.65    \nframe=  156 fps=8.1 q=57.0 size=     128KiB time=00:00:01.30 bitrate= 805.2kbits/s speed=0.0677x elapsed=0:00:19.19    \nframe=  159 fps=8.1 q=47.0 size=     128KiB time=00:00:01.32 bitrate= 790.0kbits/s speed=0.0672x elapsed=0:00:19.71    \nframe=  165 fps=8.2 q=57.0 size=     128KiB time=00:00:01.37 bitrate= 761.3kbits/s speed=0.068x elapsed=0:00:20.22    \nframe=  170 fps=8.2 q=59.0 size=     128KiB time=00:00:01.41 bitrate= 738.9kbits/s speed=0.0682x elapsed=0:00:20.76    \nframe=  173 fps=8.1 q=59.0 size=     128KiB time=00:00:01.44 bitrate= 726.1kbits/s speed=0.0677x elapsed=0:00:21.28    \nframe=  178 fps=8.2 q=60.0 size=     128KiB time=00:00:01.48 bitrate= 705.7kbits/s speed=0.068x elapsed=0:00:21.80    \nframe=  184 fps=8.2 q=60.0 size=     128KiB time=00:00:01.53 bitrate= 682.7kbits/s speed=0.0687x elapsed=0:00:22.32    \nframe=  188 fps=8.2 q=60.0 size=     128KiB time=00:00:01.56 bitrate= 668.1kbits/s speed=0.0685x elapsed=0:00:22.85    \nframe=  193 fps=8.3 q=59.0 size=     128KiB time=00:00:01.60 bitrate= 650.8kbits/s speed=0.0688x elapsed=0:00:23.36    \nframe=  198 fps=8.3 q=60.0 size=     128KiB time=00:00:01.65 bitrate= 634.4kbits/s speed=0.0691x elapsed=0:00:23.88    \nframe=  203 fps=8.3 q=60.0 size=     128KiB time=00:00:01.69 bitrate= 618.8kbits/s speed=0.0693x elapsed=0:00:24.40    \nframe=  207 fps=8.3 q=60.0 size=     128KiB time=00:00:01.72 bitrate= 606.8kbits/s speed=0.0692x elapsed=0:00:24.93    \nframe=  212 fps=8.3 q=61.0 size=     128KiB time=00:00:01.76 bitrate= 592.5kbits/s speed=0.0694x elapsed=0:00:25.44    \nframe=  218 fps=8.4 q=61.0 size=     128KiB time=00:00:01.81 bitrate= 576.2kbits/s speed=0.07x elapsed=0:00:25.96    \nframe=  223 fps=8.4 q=59.0 size=     128KiB time=00:00:01.85 bitrate= 563.3kbits/s speed=0.0701x elapsed=0:00:26.49    \nframe=  232 fps=8.6 q=59.0 size=     128KiB time=00:00:01.92 bitrate= 543.8kbits/s speed=0.0711x elapsed=0:00:27.06    \nframe=  239 fps=8.7 q=60.0 size=     128KiB time=00:00:01.99 bitrate= 525.6kbits/s speed=0.0721x elapsed=0:00:27.62    \nframe=  245 fps=8.7 q=43.0 size=     128KiB time=00:00:02.04 bitrate= 512.7kbits/s speed=0.0726x elapsed=0:00:28.13    \nframe=  255 fps=8.9 q=60.0 size=     128KiB time=00:00:02.12 bitrate= 492.6kbits/s speed=0.0742x elapsed=0:00:28.64    \nframe=  259 fps=8.9 q=59.0 size=     256KiB time=00:00:02.15 bitrate= 971.7kbits/s speed=0.074x elapsed=0:00:29.16    \nframe=  267 fps=9.0 q=58.0 size=     256KiB time=00:00:02.22 bitrate= 942.5kbits/s speed=0.0749x elapsed=0:00:29.69    \nframe=  273 fps=9.0 q=57.0 size=     256KiB time=00:00:02.27 bitrate= 921.8kbits/s speed=0.0753x elapsed=0:00:30.22    \nframe=  276 fps=9.0 q=56.0 size=     256KiB time=00:00:02.30 bitrate= 911.8kbits/s speed=0.0748x elapsed=0:00:30.76    \nframe=  276 fps=8.8 q=56.0 size=     256KiB time=00:00:02.30 bitrate= 911.8kbits/s speed=0.0734x elapsed=0:00:31.32    \nframe=  276 fps=8.6 q=56.0 size=     256KiB time=00:00:02.30 bitrate= 911.8kbits/s speed=0.0719x elapsed=0:00:31.98    \nframe=  276 fps=8.5 q=56.0 size=     256KiB time=00:00:02.30 bitrate= 911.8kbits/s speed=0.0705x elapsed=0:00:32.63    \n[out#0/webm @ 000002303aa68e00] video:337KiB audio:0KiB subtitle:0KiB other streams:0KiB global headers:0KiB muxing overhead: 0.774361%\nframe=  300 fps=9.1 q=38.0 Lsize=     340KiB time=00:00:02.50 bitrate=1113.2kbits/s speed=0.0761x elapsed=0:00:32.84    \n",
  "seconds": 33.10659956932068,
  "probe_out": {}
}